<svg version="1" xmlns="http://www.w3.org/2000/svg" width="426.667" height="426.667" viewBox="0 0 320.000000 320.000000"><path d="M20.9 81.5c0 3.3 0 39.7-.1 81v75l18.6.1 18.6.2.2-31.5.3-31.5 24.3 31.4 24.3 31.5h23.4c18.6 0 23.3-.2 22.7-1.2-.4-.7-2.6-3.5-4.9-6.2-2.3-2.6-12.6-14.9-22.8-27.3-10.3-12.4-20.5-24.6-22.6-27.2l-4-4.6 6.8-3.3c8.3-4.1 17-12.5 20.7-20 6.7-13.7 6.9-32.9.6-46.4-4.9-10.3-14.3-18.2-26.7-22.4-9-3-13.7-3.4-48.1-3.5L21 75.5l-.1 6zm59.1 26c8.5 2.8 13.2 10.6 12.4 20.6-1 13.3-8.3 18.7-25.5 19.2l-8.4.2-.3-20c-.1-11 0-20.5.2-21.1.6-1.6 15.7-.9 21.6 1.1zM172.7 75.8c-1.6.3-1.7 6.4-1.7 81.2v80.8l18.5-.1H208l.2-31.5.3-31.5 11.5 14.8c6.3 8.2 14 18.1 17 22 3 3.9 8.8 11.4 12.8 16.7l7.3 9.4 23.5.1c12.9 0 23.4-.1 23.4-.3 0-.3-14.6-18-28.8-34.9-.9-1.1-7.2-8.6-13.9-16.7l-12.2-14.6 6.7-3.3c8-3.9 16.9-12.4 20.5-19.6 5.9-11.5 7-29.5 2.7-42.3-5.3-15.8-20.9-27.3-40.2-29.6-5.4-.7-63.1-1.2-66.1-.6zm56 31.1c9.1 2.5 13.7 9 13.7 19.6 0 14.3-7.3 20.2-25.7 20.9l-8.7.3v-42.3l8.3.2c4.5.1 10.1.7 12.4 1.3z"/></svg>